<svg width="24" height="24" viewBox="0 0 24 24" fill="none" xmlns="http://www.w3.org/2000/svg">
<g id="youtube">
<path id="Icon color" fill-rule="evenodd" clip-rule="evenodd" d="M18.5404 4.34041L20.0004 4.49041C21.7289 4.68578 23.0268 6.16113 23.0004 7.90041V16.1004C23.0268 17.8397 21.7289 19.315 20.0004 19.5104L18.6004 19.6604C14.232 20.1104 9.82884 20.1104 5.4604 19.6604L4.0004 19.5104C2.27191 19.315 0.973952 17.8397 1.0004 16.1004V7.90041C0.973952 6.16113 2.27191 4.68578 4.0004 4.49041L5.4004 4.34041C9.76884 3.89044 14.172 3.89044 18.5404 4.34041ZM11.11 15.22L15 12.62H15.06C15.2696 12.4834 15.396 12.2502 15.396 12C15.396 11.7498 15.2696 11.5166 15.06 11.38L11.17 8.78C10.9403 8.62476 10.6438 8.60887 10.3988 8.73867C10.1539 8.86846 10.0005 9.12279 10 9.4V14.6C10.0129 14.8581 10.1577 15.0913 10.3833 15.2173C10.6089 15.3433 10.8835 15.3444 11.11 15.22Z" fill="white"/>
</g>
</svg>
